<svg xmlns="http://www.w3.org/2000/svg" width="126.702" height="104" viewBox="0 0 126.702 104">
  <g id="Grupo_23008" data-name="Grupo 23008" transform="translate(-971.844 -358.916)">
    <path id="Trazado_17361" data-name="Trazado 17361" d="M1035.315,358.917q28.668,0,57.337,0c4.917,0,5.892,1,5.892,5.966q0,38.183,0,76.367c0,4.172-.082,4.251-4.321,4.253-9.474,0-18.948.04-28.422-.031a4.245,4.245,0,0,0-4.165,2.3c-12.47,20.191-40.419,20.2-52.881.008a4.244,4.244,0,0,0-4.16-2.3c-9.638.071-19.277.038-28.915.029-3.593,0-3.832-.234-3.832-3.747q-.008-38.8,0-77.6c0-4.021,1.23-5.226,5.387-5.229Q1006.275,358.9,1035.315,358.917Zm-.184,22.769c-19.028,0-38.056.032-57.083-.041-2.357-.009-3.134.736-3.124,3.113q.118,27.183.011,54.365c-.006,2.083.589,2.951,2.8,2.928,8.566-.09,17.133-.075,25.7-.009,1.985.015,2.34-.6,1.882-2.5a30.106,30.106,0,0,1,2.707-22.025,29.525,29.525,0,0,1,8.193-9.758c1.028-.779,1.983-1.523,1.024-3.027s-1.822-.344-2.729-.022c-.154.055-.292.153-.442.218-.916.4-1.812.467-2.391-.5a1.6,1.6,0,0,1,.64-2.347c2.76-1.639,5.558-3.213,8.366-4.768a1.44,1.44,0,0,1,1.978.465,1.574,1.574,0,0,1-.236,2.227,8.65,8.65,0,0,1-1.413.984c-.8.5-1.184,1.1-.668,2.048a1.555,1.555,0,0,0,2.233.838,34.882,34.882,0,0,1,6.326-2.082,1.5,1.5,0,0,0,1.237-1.61c.025-.84-.263-1.489-1.172-1.605-2.058-.263-2.428-1.63-2.345-3.383.058-1.233.062-2.473,0-3.706-.094-2.013.93-2.862,2.83-2.871q4.2-.019,8.4-.022c5.929,0,5.906,0,5.911,6,0,1.9.072,3.721-2.484,4.027-.787.094-1.034.721-1.036,1.454,0,.707.164,1.418.9,1.6a57.069,57.069,0,0,1,7.034,2.309c1.035.4,1.512-.307,1.918-1.069.445-.833.078-1.407-.629-1.863a12.461,12.461,0,0,1-1.431-.963,1.593,1.593,0,0,1-.378-2.212,1.418,1.418,0,0,1,1.933-.6,66.486,66.486,0,0,1,8.76,5.053,1.489,1.489,0,0,1,.416,2.007,1.549,1.549,0,0,1-2.113.716,12.532,12.532,0,0,1-1.556-.75c-.733-.4-1.409-.544-1.883.343-.388.725-.879,1.473-.062,2.231.361.336.757.635,1.135.953,9.927,8.372,13.534,18.953,10.786,31.6-.52,2.392.3,2.621,2.252,2.608,8.237-.059,16.474-.019,24.712-.027,3.343,0,3.377-.043,3.378-3.513q.006-26.689,0-53.377c0-3.414-.021-3.435-3.454-3.436Q1063.549,381.681,1035.131,381.686Zm-.06-3.518h1.977q27.432,0,54.864,0c3.5,0,3.505-.01,3.511-3.6q.007-4.2,0-8.4c-.005-3.755-.007-3.762-3.88-3.762q-54.37,0-108.74,0-1.978,0-3.954,0c-3.875.007-3.877.007-3.882,3.761q-.006,4.2,0,8.4c.006,3.586.008,3.6,3.51,3.6Q1006.774,378.171,1035.071,378.168Zm27.3,53.875a27.174,27.174,0,1,0-54.347-.11c-.033,15.432,11.764,27.327,27.116,27.34A26.78,26.78,0,0,0,1062.368,432.043Zm-27.35-37.13c1.316,0,2.632.01,3.948,0,.84-.009,1.434-.325,1.459-1.285a1.208,1.208,0,0,0-1.349-1.386c-2.55-.021-5.1-.018-7.65-.008-.839,0-1.437.321-1.46,1.283-.025,1.108.664,1.4,1.6,1.4C1032.714,394.925,1033.866,394.919,1035.018,394.913Z" fill="#ec6f35"/>
    <path id="Trazado_17362" data-name="Trazado 17362" d="M1133.8,381.5q-9.135,0-18.271,0a16.807,16.807,0,0,1-2.216-.094c-.874-.117-1.622-.523-1.638-1.529a1.653,1.653,0,0,1,1.544-1.654,12.885,12.885,0,0,1,2.45-.2c12.1-.011,24.2-.03,36.294.019,1.611.006,4.125-.521,4.093,1.893-.031,2.388-2.52,1.505-3.987,1.528C1145.981,381.555,1139.89,381.5,1133.8,381.5Z" transform="translate(-70.708 -9.647)" fill="#ec6f35"/>
    <path id="Trazado_17363" data-name="Trazado 17363" d="M1074.405,381.418c-.822,0-1.644.024-2.464-.009a2.874,2.874,0,0,1-1.44-.225c-2.819-1.995-1.385-4.949-1.513-7.5-.086-1.715,1.169-2.615,2.887-2.725.41-.026.821-.023,1.232-.029,6.5-.087,6.842.26,6.631,6.758-.1,3.064-.752,3.7-3.854,3.743-.493.007-.986,0-1.479,0Z" transform="translate(-48.995 -6.069)" fill="#ec6f35"/>
    <path id="Trazado_17364" data-name="Trazado 17364" d="M1003.153,381.439c-5.146,0-5.242-.1-5.242-5.244,0-5.08.192-5.262,5.539-5.26,4.837,0,4.963.142,4.959,5.532C1008.4,381.311,1008.269,381.439,1003.153,381.439Z" transform="translate(-13.181 -6.078)" fill="#ec6f35"/>
    <path id="Trazado_17365" data-name="Trazado 17365" d="M1039.178,381.439c-5.337,0-5.347-.01-5.345-5.359,0-4.984.161-5.145,5.086-5.145,5.188,0,5.422.246,5.415,5.675C1044.329,381.248,1044.125,381.438,1039.178,381.439Z" transform="translate(-31.346 -6.078)" fill="#ec6f35"/>
    <path id="Trazado_17366" data-name="Trazado 17366" d="M1099.406,480.379a25.849,25.849,0,1,1-25.938-26.165A25.731,25.731,0,0,1,1099.406,480.379Zm-21.745,21.943a22.049,22.049,0,0,0,7.651-2.946c2.829-1.772,2.867-1.749.686-4.292-.707-.825-1.226-1.668-.365-2.6.97-1.056,1.918-.557,2.773.27a3.592,3.592,0,0,1,.352.346c1.449,1.86,2.489,1.176,3.564-.453a23.855,23.855,0,0,0,2.964-6.759c.91-3.229.754-3.482-2.576-4-.977-.152-1.8-.469-1.873-1.59s.683-1.595,1.65-1.811a3.852,3.852,0,0,1,.979-.118c2.157.089,2.478-1.1,2.073-2.874a23.16,23.16,0,0,0-2.353-6.218c-.646-1.15-1.194-2.611-2.349-3.086-1.23-.506-1.708,1.253-2.68,1.783-.072.039-.132.1-.2.142a1.668,1.668,0,0,1-2.429-.229c-.627-.783-.31-1.552.3-2.218a13.4,13.4,0,0,1,1.212-1.233c1.026-.865.939-1.51-.169-2.3a22.45,22.45,0,0,0-7.062-3.456c-3.862-1.065-3.874-1.06-4.674,2.7-.191.894-.574,1.587-1.573,1.588s-1.442-.681-1.559-1.589a6.473,6.473,0,0,1-.061-1.479c.182-1.777-.649-2.083-2.223-1.78a23.71,23.71,0,0,0-7.184,2.548c-1.151.645-2.625,1.2-3.075,2.355-.473,1.214,1.258,1.7,1.841,2.642a2.251,2.251,0,0,0,.156.191,1.52,1.52,0,0,1,.139,2.034,1.573,1.573,0,0,1-2.216.343,6.062,6.062,0,0,1-1.491-1.28c-1.033-1.236-1.756-1.054-2.638.236a22.98,22.98,0,0,0-3.481,7.588c-.711,2.935-.6,3.118,2.374,3.622,1.118.19,2.2.479,2.129,1.9-.065,1.262-1.047,1.54-2.111,1.6a6.091,6.091,0,0,1-.741.022c-1.681-.113-2.259.761-1.961,2.288a21.449,21.449,0,0,0,3.936,9.231c.762.986,1.527,1.162,2.437.19a11.905,11.905,0,0,1,1.451-1.338,1.5,1.5,0,0,1,2.208.189,1.473,1.473,0,0,1,.088,2.031,11.58,11.58,0,0,1-1.515,1.622c-.9.793-.9,1.42.1,2.148a22.928,22.928,0,0,0,9.69,4.115c1.288.224,2.092-.2,2.065-1.669a10.511,10.511,0,0,1,.114-1.969,1.533,1.533,0,0,1,3.041.006,11.435,11.435,0,0,1,.115,1.969C1075.186,501.974,1075.745,502.569,1077.661,502.322Z" transform="translate(-38.363 -48.189)" fill="#ec6f35"/>
    <path id="Trazado_17367" data-name="Trazado 17367" d="M1099.85,500.281a6.488,6.488,0,1,1-6.442-6.452A6.559,6.559,0,0,1,1099.85,500.281Zm-3.6.08c-.122-1.8-1.04-2.9-2.913-2.89a2.82,2.82,0,1,0,.051,5.64A2.682,2.682,0,0,0,1096.25,500.361Z" transform="translate(-58.167 -68.221)" fill="#ec6f35"/>
  </g>
</svg>
