<svg id="Grupo_23258" data-name="Grupo 23258" xmlns="http://www.w3.org/2000/svg" width="20.3" height="25.805" viewBox="0 0 20.3 25.805">
  <path id="Trazado_17395" data-name="Trazado 17395" d="M133.509,1346.4a5.268,5.268,0,1,1,5.265,5.276A5.274,5.274,0,0,1,133.509,1346.4Zm5.274-3.886a3.891,3.891,0,1,0,3.88,3.886A3.9,3.9,0,0,0,138.783,1342.51Z" transform="translate(-128.644 -1331.736)" fill="#343434"/>
  <path id="Trazado_17396" data-name="Trazado 17396" d="M196.6,1420.54a.816.816,0,0,1,.577.258c.224.221.447.443.667.669.074.076.124.086.206,0q.872-.885,1.753-1.76a3.178,3.178,0,0,1,.344-.321.664.664,0,0,1,.933.08.7.7,0,0,1-.037.954c-.565.574-1.137,1.141-1.706,1.711-.291.291-.58.585-.874.873a.68.68,0,0,1-.978.037c-.364-.335-.706-.694-1.057-1.044-.107-.107-.215-.212-.312-.328a.652.652,0,0,1-.093-.732A.7.7,0,0,1,196.6,1420.54Z" transform="translate(-188.474 -1406.574)" fill="#343434"/>
  <path id="Trazado_17397" data-name="Trazado 17397" d="M17.383,1131.735q0-4.336,0-8.672a2.64,2.64,0,0,1,2.212-2.635,2.368,2.368,0,0,1,.4-.024c.684,0,1.369-.007,2.053,0,.185,0,.249-.059.239-.242-.012-.237-.005-.474,0-.712a.531.531,0,0,1,.463-.558,2.337,2.337,0,0,1,.521-.038h1.3a.215.215,0,0,0,.236-.124,2.727,2.727,0,0,1,2.65-1.691,3,3,0,0,1,1.921.587,2.6,2.6,0,0,1,.794,1.034.291.291,0,0,0,.319.2c.482-.007.963,0,1.445,0a1.514,1.514,0,0,1,.414.053.532.532,0,0,1,.426.547c0,.244.008.489,0,.733-.007.167.061.217.221.216.684-.006,1.368,0,2.053,0a2.619,2.619,0,0,1,2.625,2.621c.006,2.311,0,4.622,0,6.933,0,3.442-.03,6.885.013,10.326a2.536,2.536,0,0,1-2.565,2.562c-5.069-.013-10.138,0-15.207-.008a2.489,2.489,0,0,1-2.251-1.286,2.139,2.139,0,0,1-.276-1.125q0-1.561,0-3.121Q17.383,1134.521,17.383,1131.735Zm1.306-.032q0,4.346,0,8.692a1.016,1.016,0,0,0,.392.859,1.637,1.637,0,0,0,1.044.308H34.93c.07,0,.14,0,.209,0a1.177,1.177,0,0,0,1.224-1.308q0-2.346,0-4.692,0-6.252,0-12.5a1.3,1.3,0,0,0-1.333-1.338c-.677,0-1.354,0-2.032,0-.173,0-.234.059-.23.231.009.4.008.81,0,1.215a.648.648,0,0,1-.578.663,2.246,2.246,0,0,1-.354.028q-4.325,0-8.65,0a1.954,1.954,0,0,1-.271-.014.655.655,0,0,1-.633-.719c0-.384-.009-.768,0-1.152.006-.192-.058-.256-.251-.254-.642.009-1.286.033-1.926,0a1.39,1.39,0,0,0-1.428,1.429C18.705,1125.992,18.689,1128.847,18.689,1131.7Zm8.831-9.159c1.228,0,2.456,0,3.685,0,.183,0,.263-.047.26-.247-.01-.635-.008-1.27,0-1.905,0-.173-.059-.234-.232-.231-.439.008-.879,0-1.319,0a.722.722,0,0,1-.814-.64,1.671,1.671,0,0,0-1.989-1.233,1.635,1.635,0,0,0-1.237,1.239.773.773,0,0,1-.828.639c-.4-.024-.809,0-1.214-.008-.181,0-.246.057-.243.241.008.614,0,1.228,0,1.842,0,.3,0,.3.307.3Z" transform="translate(-17.383 -1117.042)" fill="#343434"/>
</svg>
