<svg xmlns="http://www.w3.org/2000/svg" width="25.952" height="28.937" viewBox="0 0 25.952 28.937">
  <g id="Grupo_23028" data-name="Grupo 23028" transform="translate(852.726 -59.757)">
    <g id="Grupo_23026" data-name="Grupo 23026" transform="translate(-852.726 64.555)">
      <path id="Trazado_17386" data-name="Trazado 17386" d="M-658.617,189.786q0-4.056,0-8.112a2.47,2.47,0,0,1,2.07-2.465,2.2,2.2,0,0,1,.371-.022c.64,0,1.28-.006,1.92,0,.173,0,.233-.055.224-.226-.011-.221-.005-.444,0-.666a.5.5,0,0,1,.433-.522,2.185,2.185,0,0,1,.487-.035h1.215a.2.2,0,0,0,.221-.116,2.551,2.551,0,0,1,2.479-1.582,2.8,2.8,0,0,1,1.8.549,2.43,2.43,0,0,1,.743.967.272.272,0,0,0,.3.186c.451-.007.9,0,1.352,0a1.418,1.418,0,0,1,.387.05.5.5,0,0,1,.4.511c0,.229.008.457,0,.686-.006.156.057.2.207.2.64-.006,1.28,0,1.92,0a2.45,2.45,0,0,1,2.455,2.452c.006,2.162,0,4.324,0,6.486,0,3.22-.028,6.44.013,9.66a2.372,2.372,0,0,1-2.4,2.4c-4.742-.012-9.483,0-14.225-.008a2.329,2.329,0,0,1-2.106-1.2,2,2,0,0,1-.258-1.053q0-1.46,0-2.919Zm1.222-.03q0,4.065,0,8.131a.95.95,0,0,0,.366.8,1.532,1.532,0,0,0,.977.288H-642.2c.065,0,.131,0,.2,0a1.1,1.1,0,0,0,1.145-1.223v-4.389q0-5.848,0-11.7a1.217,1.217,0,0,0-1.247-1.251c-.633,0-1.267,0-1.9,0-.162,0-.219.055-.215.216.008.379.007.758,0,1.136a.606.606,0,0,1-.54.62,2.091,2.091,0,0,1-.331.026q-4.046,0-8.092,0a1.842,1.842,0,0,1-.254-.013.613.613,0,0,1-.592-.672c0-.359-.009-.719,0-1.077.005-.179-.055-.24-.235-.237-.6.009-1.2.031-1.8,0a1.3,1.3,0,0,0-1.336,1.337C-657.38,184.414-657.4,187.085-657.4,189.756Zm8.261-8.568c1.149,0,2.3,0,3.447,0,.172,0,.246-.044.243-.231-.01-.594-.008-1.188,0-1.782,0-.162-.055-.219-.217-.216-.411.008-.822,0-1.234,0a.675.675,0,0,1-.761-.6,1.563,1.563,0,0,0-1.861-1.153,1.53,1.53,0,0,0-1.157,1.159.723.723,0,0,1-.775.6c-.377-.022-.757,0-1.136-.007-.17,0-.23.053-.228.225.008.574,0,1.149,0,1.723,0,.277,0,.278.287.278Z" transform="translate(658.617 -176.042)"/>
      <path id="Trazado_17387" data-name="Trazado 17387" d="M-442.608,418.523q-1.6,0-3.192,0a.623.623,0,0,1-.672-.481.6.6,0,0,1,.531-.741c.039,0,.078,0,.117,0q3.232,0,6.463,0a.6.6,0,0,1,.635.769.621.621,0,0,1-.651.456Q-440.992,418.526-442.608,418.523Z" transform="translate(454.803 -407.843)"/>
      <path id="Trazado_17388" data-name="Trazado 17388" d="M-442.587,651.342c1.084,0,2.167,0,3.251,0a.6.6,0,0,1,.619.756.564.564,0,0,1-.463.45.91.91,0,0,1-.214.018q-3.192,0-6.384,0a.626.626,0,0,1-.662-.385.6.6,0,0,1,.563-.838c.587-.008,1.175,0,1.763,0Z" transform="translate(454.798 -632.713)"/>
      <path id="Trazado_17389" data-name="Trazado 17389" d="M-442.639,534.314h3.1a1.38,1.38,0,0,1,.33.032.563.563,0,0,1,.448.6.55.55,0,0,1-.5.56,2.931,2.931,0,0,1-.371.024q-3.037,0-6.074,0a2.1,2.1,0,0,1-.389-.032.569.569,0,0,1-.455-.564.582.582,0,0,1,.428-.586,1.4,1.4,0,0,1,.369-.04Z" transform="translate(454.862 -520.272)"/>
      <path id="Trazado_17390" data-name="Trazado 17390" d="M-583.284,384.49a.5.5,0,0,1-.383-.131c-.423-.426-.851-.847-1.265-1.281a.681.681,0,0,1,.034-.865.6.6,0,0,1,.834.026c.211.2.42.411.613.632.111.127.183.126.3.013q.808-.782,1.628-1.552a.594.594,0,0,1,.888.015.545.545,0,0,1,.015.806c-.415.416-.844.817-1.27,1.222-.35.332-.7.66-1.057.989A.5.5,0,0,1-583.284,384.49Z" transform="translate(587.953 -373.101)"/>
      <path id="Trazado_17391" data-name="Trazado 17391" d="M-584.909,500.108a.56.56,0,0,1,.859-.532,2.267,2.267,0,0,1,.508.482c.117.122.224.3.366.339.166.042.26-.181.379-.291.479-.443.948-.9,1.422-1.345a.646.646,0,0,1,.726-.113.609.609,0,0,1,.342.591.556.556,0,0,1-.188.375q-.648.623-1.3,1.245c-.292.279-.591.551-.878.835a.633.633,0,0,1-.94.019c-.362-.367-.719-.737-1.079-1.106A.62.62,0,0,1-584.909,500.108Z" transform="translate(587.8 -485.943)"/>
      <g id="Grupo_23025" data-name="Grupo 23025" transform="translate(2.611 17.007)">
        <path id="Trazado_17392" data-name="Trazado 17392" d="M-588.354,615.055h-2.236a1.412,1.412,0,0,1-1.41-1.41V611.41a1.412,1.412,0,0,1,1.41-1.41h2.236a1.412,1.412,0,0,1,1.41,1.41v2.235A1.412,1.412,0,0,1-588.354,615.055Zm-2.236-3.88a.235.235,0,0,0-.234.234v2.235a.235.235,0,0,0,.234.234h2.236a.235.235,0,0,0,.234-.234V611.41a.235.235,0,0,0-.234-.234Z" transform="translate(592 -610)"/>
      </g>
    </g>
    <g id="Grupo_23027" data-name="Grupo 23027" transform="translate(-838.211 59.757)">
      <path id="Trazado_17393" data-name="Trazado 17393" d="M-825.57,60a5.844,5.844,0,0,1,1.5.178,6.293,6.293,0,0,1,2.056.926,6.131,6.131,0,0,1,.976.827,6.094,6.094,0,0,1,1.055,1.488.956.956,0,0,1,.134.4,1.133,1.133,0,0,1-.208.558,5.926,5.926,0,0,1-.756,1.1,6.026,6.026,0,0,1-.917.866,6.281,6.281,0,0,1-1.72.943,6.051,6.051,0,0,1-1.325.319,6.633,6.633,0,0,1-1.447.014,6.159,6.159,0,0,1-1.507-.349,6.191,6.191,0,0,1-1.369-.7,6.209,6.209,0,0,1-.889-.73,6.121,6.121,0,0,1-.827-1.012,7.707,7.707,0,0,1-.4-.7.661.661,0,0,1,.016-.632A6.409,6.409,0,0,1-830,61.834a6.113,6.113,0,0,1,1.191-.929,6.386,6.386,0,0,1,1.008-.494,6.439,6.439,0,0,1,1.017-.292A6.7,6.7,0,0,1-825.57,60Zm-.049,1.071c-.215.019-.487.021-.757.067a5.353,5.353,0,0,0-1.466.461,5.151,5.151,0,0,0-1.336.931,5,5,0,0,0-.948,1.244.1.1,0,0,0,0,.111,4.8,4.8,0,0,0,.3.48,5.249,5.249,0,0,0,1.695,1.534,5.134,5.134,0,0,0,1.955.642,4.811,4.811,0,0,0,1.378-.02,5.517,5.517,0,0,0,1.484-.46,5.2,5.2,0,0,0,1.386-.971,5.121,5.121,0,0,0,.914-1.2.111.111,0,0,0,0-.119,3.883,3.883,0,0,0-.293-.474,5.159,5.159,0,0,0-2.35-1.858A5.234,5.234,0,0,0-825.619,61.071Z" transform="translate(831.288 -60)"/>
      <path id="Trazado_17394" data-name="Trazado 17394" d="M-745.825,102.369a2.131,2.131,0,0,1,1.942-2.121,2.142,2.142,0,0,1,2.32,1.933,2.149,2.149,0,0,1-1.927,2.335A2.14,2.14,0,0,1-745.825,102.369Zm3.192.011a1.053,1.053,0,0,0-1.058-1.066,1.063,1.063,0,0,0-1.062,1.056,1.066,1.066,0,0,0,1.071,1.076A1.056,1.056,0,0,0-742.632,102.379Z" transform="translate(749.409 -98.552)"/>
    </g>
  </g>
</svg>
