<svg xmlns="http://www.w3.org/2000/svg" width="84.995" height="93.598" viewBox="0 0 84.995 93.598">
  <g id="Grupo_23555" data-name="Grupo 23555" transform="translate(-763.502 -287.701)">
    <g id="Grupo_23002" data-name="Grupo 23002" transform="translate(763.502 327.301)">
      <path id="Trazado_17303" data-name="Trazado 17303" d="M1583.552,546.009q-.376-.271-.755-.538c-.77-.543-1.565-1.106-2.276-1.722a1.75,1.75,0,0,1-.52-1.072,44.8,44.8,0,0,1-.005-4.66,1.58,1.58,0,0,1,.436-.981c.711-.6,1.5-1.164,2.256-1.7.3-.211.591-.421.884-.635a2.625,2.625,0,0,0,1.038-3.253,27.268,27.268,0,0,0-5.036-8.728,2.66,2.66,0,0,0-2.057-1.04,3.2,3.2,0,0,0-1.282.3q-.963.425-1.929.841c-1.172.508-2.382,1.034-3.565,1.575a2.52,2.52,0,0,0-1.485,3.357,2.453,2.453,0,0,0,2.313,1.569,3.222,3.222,0,0,0,1.223-.254c.476-.2.95-.409,1.408-.616.68-.308,1.383-.625,2.086-.876a.466.466,0,0,1,.138-.015,1.04,1.04,0,0,1,.5.117c.66.991,1.254,2.015,1.882,3.1.146.251.292.5.441.757q-.424.315-.829.62c-.867.648-1.684,1.259-2.517,1.84a3.086,3.086,0,0,0-1.3,2.967c.1,2.263.1,4.55,0,6.8a3.1,3.1,0,0,0,1.275,2.976c.835.583,1.655,1.2,2.524,1.844l.837.623c-.168.287-.337.573-.5.856-.6,1.014-1.162,1.973-1.718,2.965-.179.321-.291.321-.339.321a1.14,1.14,0,0,1-.449-.146c-.611-.3-1.242-.574-1.851-.836-.469-.2-.953-.409-1.418-.628a2.866,2.866,0,0,0-1.237-.294,3.685,3.685,0,0,0-1.976.7,60.253,60.253,0,0,1-5.761,3.331,3.19,3.19,0,0,0-2.043,2.665c-.042.465-.094.939-.145,1.4-.079.709-.16,1.441-.207,2.17-.031.488-.162.534-.5.535h-.966c-.98,0-1.994,0-2.993.013h-.023c-.4,0-.559-.06-.593-.692-.046-.844-.145-1.691-.24-2.509-.041-.357-.083-.713-.121-1.07a3.066,3.066,0,0,0-1.912-2.472c-2.173-1.13-4.1-2.238-5.885-3.386a3.56,3.56,0,0,0-1.955-.682,2.916,2.916,0,0,0-1.261.3c-1.176.554-2.239,1.045-3.35,1.449a.463.463,0,0,1-.137.015.991.991,0,0,1-.412-.085c-.675-1.028-1.288-2.077-1.935-3.186l-.428-.731.806-.6c.814-.61,1.583-1.187,2.371-1.712a3.347,3.347,0,0,0,1.435-3.421,44.941,44.941,0,0,1,.007-6.262,3.269,3.269,0,0,0-1.389-3.314c-.786-.529-1.564-1.108-2.388-1.722l-.848-.63q.225-.383.445-.761c.637-1.092,1.238-2.123,1.9-3.126a.932.932,0,0,1,.456-.127.283.283,0,0,1,.067.006,35.5,35.5,0,0,1,3.344,1.44,3,3,0,0,0,1.315.321,3.633,3.633,0,0,0,2.017-.717,62.137,62.137,0,0,1,5.766-3.323,3.132,3.132,0,0,0,1.987-2.561c.03-.3.057-.607.084-.911.08-.9.163-1.832.327-2.72a1.043,1.043,0,0,1,.429-.506c.682-.05,1.376-.076,2.064-.076s1.359.025,2.032.073a1.028,1.028,0,0,1,.441.49c.13.7.2,1.443.266,2.158.05.53.1,1.078.178,1.62a2.586,2.586,0,0,0,2.531,2.458c.07,0,.14,0,.212-.008a2.427,2.427,0,0,0,1.7-.843,2.9,2.9,0,0,0,.6-2.149c-.162-1.859-.372-3.742-.575-5.562l-.046-.414a2.525,2.525,0,0,0-2.384-2.5c-.553-.04-1.118-.088-1.665-.135-1.4-.12-2.846-.245-4.271-.245-.53,0-1.021.017-1.5.051-2.212.158-3.4.274-4.125,1.013-.744.758-.832,2.031-.979,4.141-.128,1.843-.658,2.632-2.1,3.129a7.616,7.616,0,0,0-1.734.967,4.063,4.063,0,0,1-1.857.887h-.064a5.513,5.513,0,0,1-2.374-.9c-.426-.233-.865-.473-1.31-.662a4.064,4.064,0,0,0-1.58-.4,2.566,2.566,0,0,0-2.141,1.378,54.042,54.042,0,0,0-3.984,6.431c-.881,1.773-1.269,2.707-1.023,3.609s1.063,1.522,2.615,2.655c.059.043.116.09.174.137a2.705,2.705,0,0,0,.525.357,2.459,2.459,0,0,1,1.48,3.041,8.588,8.588,0,0,0-.014,1.979,4.389,4.389,0,0,1-.175,2.192,5.79,5.79,0,0,1-2.171,1.813c-.382.232-.776.472-1.137.73a2.61,2.61,0,0,0-1.021,3.519c.225.457.446.917.668,1.377a45.223,45.223,0,0,0,2.722,5.089c1.315,2.021,2.064,3.076,3.409,3.076a9.587,9.587,0,0,0,3.388-1.107l.085-.035a1.78,1.78,0,0,0,.344-.17,2.84,2.84,0,0,1,1.582-.57,2.952,2.952,0,0,1,1.878.841,8.18,8.18,0,0,0,1.709,1.021,4.263,4.263,0,0,1,1.767,1.231,5.585,5.585,0,0,1,.468,2.694c.012.482.023.98.078,1.457a2.716,2.716,0,0,0,2.415,2.568,27.453,27.453,0,0,0,4.959.456,27.784,27.784,0,0,0,4.866-.436,2.791,2.791,0,0,0,2.509-2.786l.027-.31c.1-1.139.2-2.317.4-3.445a1.389,1.389,0,0,1,.568-.765c1.35-.855,2.746-1.663,4.148-2.4a1.468,1.468,0,0,1,.645-.146.915.915,0,0,1,.3.043c1.058.385,2.111.868,3.13,1.335l.463.212a3.3,3.3,0,0,0,1.365.327,2.823,2.823,0,0,0,2.184-1.147,28.01,28.01,0,0,0,4.9-8.508A2.68,2.68,0,0,0,1583.552,546.009Z" transform="translate(-1533.254 -513.413)" fill="#ec6f35"/>
      <path id="Trazado_17304" data-name="Trazado 17304" d="M1616.5,595.02a6.123,6.123,0,1,0,6.137,6.178A6.13,6.13,0,0,0,1616.5,595.02Zm-.04,8.153a2.031,2.031,0,1,1,2.083-1.979A2.054,2.054,0,0,1,1616.457,603.173Z" transform="translate(-1590.701 -574.196)" fill="#ec6f35"/>
    </g>
    <g id="Grupo_23003" data-name="Grupo 23003" transform="translate(796.942 287.701)">
      <path id="Trazado_17303-2" data-name="Trazado 17303" d="M1583.552,546.009q-.376-.271-.755-.538c-.77-.543-1.565-1.106-2.276-1.722a1.75,1.75,0,0,1-.52-1.072,44.8,44.8,0,0,1-.005-4.66,1.58,1.58,0,0,1,.436-.981c.711-.6,1.5-1.164,2.256-1.7.3-.211.591-.421.884-.635a2.625,2.625,0,0,0,1.038-3.253,27.268,27.268,0,0,0-5.036-8.728,2.66,2.66,0,0,0-2.057-1.04,3.2,3.2,0,0,0-1.282.3q-.963.425-1.929.841c-1.172.508-2.382,1.034-3.565,1.575a2.52,2.52,0,0,0-1.485,3.357,2.453,2.453,0,0,0,2.313,1.569,3.222,3.222,0,0,0,1.223-.254c.476-.2.95-.409,1.408-.616.68-.308,1.383-.625,2.086-.876a.466.466,0,0,1,.138-.015,1.04,1.04,0,0,1,.5.117c.66.991,1.254,2.015,1.882,3.1.146.251.292.5.441.757q-.424.315-.829.62c-.867.648-1.684,1.259-2.517,1.84a3.086,3.086,0,0,0-1.3,2.967c.1,2.263.1,4.55,0,6.8a3.1,3.1,0,0,0,1.275,2.976c.835.583,1.655,1.2,2.524,1.844l.837.623c-.168.287-.337.573-.5.856-.6,1.014-1.162,1.973-1.718,2.965-.179.321-.291.321-.339.321a1.14,1.14,0,0,1-.449-.146c-.611-.3-1.242-.574-1.851-.836-.469-.2-.953-.409-1.418-.628a2.866,2.866,0,0,0-1.237-.294,3.685,3.685,0,0,0-1.976.7,60.253,60.253,0,0,1-5.761,3.331,3.19,3.19,0,0,0-2.043,2.665c-.042.465-.094.939-.145,1.4-.079.709-.16,1.441-.207,2.17-.031.488-.162.534-.5.535h-.966c-.98,0-1.994,0-2.993.013h-.023c-.4,0-.559-.06-.593-.692-.046-.844-.145-1.691-.24-2.509-.041-.357-.083-.713-.121-1.07a3.066,3.066,0,0,0-1.912-2.472c-2.173-1.13-4.1-2.238-5.885-3.386a3.56,3.56,0,0,0-1.955-.682,2.916,2.916,0,0,0-1.261.3c-1.176.554-2.239,1.045-3.35,1.449a.463.463,0,0,1-.137.015.991.991,0,0,1-.412-.085c-.675-1.028-1.288-2.077-1.935-3.186l-.428-.731.806-.6c.814-.61,1.583-1.187,2.371-1.712a3.347,3.347,0,0,0,1.435-3.421,44.941,44.941,0,0,1,.007-6.262,3.269,3.269,0,0,0-1.389-3.314c-.786-.529-1.564-1.108-2.388-1.722l-.848-.63q.225-.383.445-.761c.637-1.092,1.238-2.123,1.9-3.126a.932.932,0,0,1,.456-.127.283.283,0,0,1,.067.006,35.5,35.5,0,0,1,3.344,1.44,3,3,0,0,0,1.315.321,3.633,3.633,0,0,0,2.017-.717,62.137,62.137,0,0,1,5.766-3.323,3.132,3.132,0,0,0,1.987-2.561c.03-.3.057-.607.084-.911.08-.9.163-1.832.327-2.72a1.043,1.043,0,0,1,.429-.506c.682-.05,1.376-.076,2.064-.076s1.359.025,2.032.073a1.028,1.028,0,0,1,.441.49c.13.7.2,1.443.266,2.158.05.53.1,1.078.178,1.62a2.586,2.586,0,0,0,2.531,2.458c.07,0,.14,0,.212-.008a2.427,2.427,0,0,0,1.7-.843,2.9,2.9,0,0,0,.6-2.149c-.162-1.859-.372-3.742-.575-5.562l-.046-.414a2.525,2.525,0,0,0-2.384-2.5c-.553-.04-1.118-.088-1.665-.135-1.4-.12-2.846-.245-4.271-.245-.53,0-1.021.017-1.5.051-2.212.158-3.4.274-4.125,1.013-.744.758-.832,2.031-.979,4.141-.128,1.843-.658,2.632-2.1,3.129a7.616,7.616,0,0,0-1.734.967,4.063,4.063,0,0,1-1.857.887h-.064a5.513,5.513,0,0,1-2.374-.9c-.426-.233-.865-.473-1.31-.662a4.064,4.064,0,0,0-1.58-.4,2.566,2.566,0,0,0-2.141,1.378,54.042,54.042,0,0,0-3.984,6.431c-.881,1.773-1.269,2.707-1.023,3.609s1.063,1.522,2.615,2.655c.059.043.116.09.174.137a2.705,2.705,0,0,0,.525.357,2.459,2.459,0,0,1,1.48,3.041,8.588,8.588,0,0,0-.014,1.979,4.389,4.389,0,0,1-.175,2.192,5.79,5.79,0,0,1-2.171,1.813c-.382.232-.776.472-1.137.73a2.61,2.61,0,0,0-1.021,3.519c.225.457.446.917.668,1.377a45.223,45.223,0,0,0,2.722,5.089c1.315,2.021,2.064,3.076,3.409,3.076a9.587,9.587,0,0,0,3.388-1.107l.085-.035a1.78,1.78,0,0,0,.344-.17,2.84,2.84,0,0,1,1.582-.57,2.952,2.952,0,0,1,1.878.841,8.18,8.18,0,0,0,1.709,1.021,4.263,4.263,0,0,1,1.767,1.231,5.585,5.585,0,0,1,.468,2.694c.012.482.023.98.078,1.457a2.716,2.716,0,0,0,2.415,2.568,27.453,27.453,0,0,0,4.959.456,27.784,27.784,0,0,0,4.866-.436,2.791,2.791,0,0,0,2.509-2.786l.027-.31c.1-1.139.2-2.317.4-3.445a1.389,1.389,0,0,1,.568-.765c1.35-.855,2.746-1.663,4.148-2.4a1.468,1.468,0,0,1,.645-.146.915.915,0,0,1,.3.043c1.058.385,2.111.868,3.13,1.335l.463.212a3.3,3.3,0,0,0,1.365.327,2.823,2.823,0,0,0,2.184-1.147,28.01,28.01,0,0,0,4.9-8.508A2.68,2.68,0,0,0,1583.552,546.009Z" transform="translate(-1533.254 -513.413)" fill="#ec6f35"/>
      <path id="Trazado_17304-2" data-name="Trazado 17304" d="M1616.5,595.02a6.123,6.123,0,1,0,6.137,6.178A6.13,6.13,0,0,0,1616.5,595.02Zm-.04,8.153a2.031,2.031,0,1,1,2.083-1.979A2.054,2.054,0,0,1,1616.457,603.173Z" transform="translate(-1590.701 -574.196)" fill="#ec6f35"/>
    </g>
  </g>
</svg>
