<svg xmlns="http://www.w3.org/2000/svg" width="13.449" height="13.449" viewBox="0 0 13.449 13.449">
  <g id="Grupo_23396" data-name="Grupo 23396" transform="translate(-107.216 -0.216)">
    <path id="Trazado_27" data-name="Trazado 27" d="M10.647,1.121h-.56V.56a.56.56,0,0,0-1.121,0v.56H4.483V.56a.56.56,0,1,0-1.121,0v.56H2.8A2.805,2.805,0,0,0,0,3.923v6.725a2.805,2.805,0,0,0,2.8,2.8h7.845a2.805,2.805,0,0,0,2.8-2.8V3.923A2.805,2.805,0,0,0,10.647,1.121Zm-9.527,2.8A1.681,1.681,0,0,1,2.8,2.242h7.845a1.681,1.681,0,0,1,1.681,1.681v.56H1.121Zm9.527,8.406H2.8a1.681,1.681,0,0,1-1.681-1.681V5.6H12.328v5.043A1.681,1.681,0,0,1,10.647,12.328Z" transform="translate(107.216 0.216)"/>
    <circle id="Elipse_7" data-name="Elipse 7" cx="0.841" cy="0.841" r="0.841" transform="translate(113.1 7.781)"/>
    <circle id="Elipse_8" data-name="Elipse 8" cx="0.841" cy="0.841" r="0.841" transform="translate(110.298 7.781)"/>
    <circle id="Elipse_9" data-name="Elipse 9" cx="0.841" cy="0.841" r="0.841" transform="translate(115.902 7.781)"/>
  </g>
</svg>
