<svg xmlns="http://www.w3.org/2000/svg" width="13.376" height="13.391" viewBox="0 0 13.376 13.391">
  <g id="Grupo_23232" data-name="Grupo 23232" transform="translate(-284.865 -320.216)">
    <path id="Trazado_17442" data-name="Trazado 17442" d="M133.509,1347.817a6.688,6.688,0,1,1,6.684,6.7A6.695,6.695,0,0,1,133.509,1347.817Zm6.7-4.934a4.94,4.94,0,1,0,4.926,4.933A4.951,4.951,0,0,0,140.2,1342.883Z" transform="translate(151.356 -1020.908)" fill="#fff"/>
    <path id="Trazado_17443" data-name="Trazado 17443" d="M196.779,1420.892a1.036,1.036,0,0,1,.732.327c.284.281.568.563.847.849.094.1.157.11.262,0q1.107-1.123,2.225-2.234a4.066,4.066,0,0,1,.436-.407.843.843,0,0,1,1.184.1.883.883,0,0,1-.047,1.211c-.717.729-1.443,1.449-2.165,2.172-.369.37-.737.742-1.11,1.109a.863.863,0,0,1-1.241.047c-.462-.425-.9-.881-1.341-1.325-.136-.135-.274-.27-.4-.416a.828.828,0,0,1-.118-.93A.891.891,0,0,1,196.779,1420.892Z" transform="translate(92.23 -1094.864)" fill="#fff"/>
  </g>
</svg>
