<svg xmlns="http://www.w3.org/2000/svg" width="24.226" height="24.22" viewBox="0 0 24.226 24.22">
  <g id="Grupo_23034" data-name="Grupo 23034" transform="translate(-5854.41 -305.479)">
    <g id="Grupo_23032" data-name="Grupo 23032" transform="translate(5854.41 305.479)">
      <g id="Grupo_23031" data-name="Grupo 23031" transform="translate(3.387 5.039)">
        <path id="Trazado_17401" data-name="Trazado 17401" d="M665.133,1223.046a5.2,5.2,0,0,1,1.335.158,5.6,5.6,0,0,1,1.829.824,5.519,5.519,0,0,1,1.807,2.06.849.849,0,0,1,.119.356,1.008,1.008,0,0,1-.185.5,5.274,5.274,0,0,1-.673.979,5.375,5.375,0,0,1-.816.771,5.592,5.592,0,0,1-1.531.839,5.387,5.387,0,0,1-1.179.284,5.916,5.916,0,0,1-1.287.013,5.571,5.571,0,0,1-4.087-2.487,6.826,6.826,0,0,1-.357-.624.588.588,0,0,1,.014-.562,5.708,5.708,0,0,1,1.062-1.478,5.446,5.446,0,0,1,1.06-.827,5.53,5.53,0,0,1,1.8-.7A5.961,5.961,0,0,1,665.133,1223.046Zm-.043.953c-.192.017-.433.019-.674.059a4.766,4.766,0,0,0-1.3.41,4.583,4.583,0,0,0-1.189.828,4.455,4.455,0,0,0-.843,1.107.092.092,0,0,0,0,.1,4.253,4.253,0,0,0,.268.427,4.67,4.67,0,0,0,1.508,1.365,4.568,4.568,0,0,0,1.74.572,4.279,4.279,0,0,0,1.226-.018,4.907,4.907,0,0,0,1.321-.409,4.624,4.624,0,0,0,1.233-.864,4.562,4.562,0,0,0,.813-1.069.1.1,0,0,0,0-.106,3.466,3.466,0,0,0-.26-.422,4.59,4.59,0,0,0-2.091-1.653A4.659,4.659,0,0,0,665.09,1224Z" transform="translate(-660.045 -1223.046)"/>
        <path id="Trazado_17402" data-name="Trazado 17402" d="M739.172,1262.2a1.9,1.9,0,1,1,2.078,1.911A1.9,1.9,0,0,1,739.172,1262.2Zm2.841.009a.943.943,0,1,0-1.886-.009.943.943,0,1,0,1.886.009Z" transform="translate(-735.982 -1258.8)"/>
      </g>
      <path id="Trazado_17403" data-name="Trazado 17403" d="M599.563,1118.78q-1.916-1.914-3.83-3.829l-2.124-2.124a1.871,1.871,0,0,0-.164-.146.525.525,0,0,0-.563-.085c-.1.05-.148.02-.237-.07l-.136-.139c-.252-.257-.512-.523-.78-.773-.118-.11-.123-.174-.028-.323a8.553,8.553,0,0,0-2.245-11.7,8.689,8.689,0,0,0-4.966-1.534h0a7.076,7.076,0,0,0-2.527.405,8.435,8.435,0,0,0-5.8,6.69,8.023,8.023,0,0,0,.3,4.131,8.565,8.565,0,0,0,9.316,5.769,8.128,8.128,0,0,0,3.525-1.349c.113-.077.158-.077.231,0,.222.229.451.457.673.678l.337.336.013.013c.055.054.055.064.046.083-.19.388.024.651.261.886,1.142,1.139,2.3,2.3,3.424,3.421l2.333,2.331a4.375,4.375,0,0,0,.441.4,1.941,1.941,0,0,0,1.187.425,2.006,2.006,0,0,0,.79-.169,1.887,1.887,0,0,0,1.194-1.647A2.018,2.018,0,0,0,599.563,1118.78Zm-9.137-5.967a2.2,2.2,0,0,0,.232-.216c.1-.106.177-.182.214-.182h0c.038,0,.118.08.229.19l.174.173.569.57.024.023c.031.029.05.048.055.072a.205.205,0,0,1-.066.084l-.034.033c-.2.2-.314.325-.4.325h0c-.08,0-.2-.118-.393-.313l-.181-.182c-.14-.142-.285-.289-.433-.429-.05-.047-.054-.071-.053-.079S590.374,1112.853,590.426,1112.813Zm7.064,5.551c0,.023-.023.057-.069.1-.338.326-.667.656-.979.979-.044.045-.076.067-.1.067h0c-.023,0-.056-.021-.1-.063-1.371-1.377-2.739-2.744-4.256-4.259-.02-.02-.063-.063-.063-.086,0-.006,0-.024.038-.058.225-.22.451-.446.669-.665l.394-.393a.358.358,0,0,1,.06-.044l0,0a.855.855,0,0,1,.077.066l1.2,1.2c1,1,2.039,2.039,3.061,3.056C597.47,1118.309,597.49,1118.341,597.49,1118.364Zm1.614,1.918a.816.816,0,0,1-.47.755.77.77,0,0,1-.866-.09,4.7,4.7,0,0,1-.375-.354c-.063-.064-.127-.13-.193-.193a.1.1,0,0,1-.035-.052.107.107,0,0,1,.038-.058c.295-.292.592-.59.88-.879l.179-.18c.039-.039.057-.048.064-.048h0s.013,0,.027.019c.066.068.135.134.2.2a2.983,2.983,0,0,1,.43.473.894.894,0,0,1,.118.407Zm-8.9-8.892a7.385,7.385,0,0,1-10.587.693,7.287,7.287,0,0,1-2.426-5.156v0a7.39,7.39,0,0,1,6.723-7.7q.328-.026.645-.026a7.4,7.4,0,0,1,5.646,12.189Z" transform="translate(-576.017 -1098.054)"/>
    </g>
  </g>
</svg>
