<svg xmlns="http://www.w3.org/2000/svg" width="22.209" height="22.193" viewBox="0 0 22.209 22.193">
  <g id="Grupo_22916" data-name="Grupo 22916" transform="translate(-537.266 -262.737)">
    <path id="Trazado_17353" data-name="Trazado 17353" d="M539.623,279.3c0-.966-.01-1.932,0-2.9,0-.332-.094-.512-.447-.543a1.968,1.968,0,0,1-1.789-1.411,2.045,2.045,0,0,1,.6-2.245q2.949-2.953,5.9-5.9c.958-.958,1.955-1.882,2.863-2.885a2.336,2.336,0,0,1,3.275-.015q4.34,4.436,8.773,8.779a2.154,2.154,0,0,1-.759,3.607l-.041.013c-.827.227-.827.227-.827,1.077q0,2.595,0,5.19a2.774,2.774,0,0,1-.787,2.166,2.385,2.385,0,0,1-1.635.686c-1.139.018-2.278.012-3.417,0-.589,0-.844-.265-.846-.848,0-1.586,0-3.172,0-4.757,0-.967-.362-1.324-1.331-1.327-.548,0-1.1,0-1.643,0a1.067,1.067,0,0,0-1.2,1.194c-.008,1.557,0,3.114,0,4.671,0,.871-.2,1.069-1.067,1.07q-1.406,0-2.811,0a2.53,2.53,0,0,1-2.808-2.773C539.612,281.2,539.623,280.249,539.623,279.3Zm1.414-.524h0c0,1.167-.008,2.335,0,3.5a1.077,1.077,0,0,0,1.223,1.224c.706,0,1.413-.019,2.118.008.4.016.524-.132.519-.523-.018-1.268-.021-2.537,0-3.8a2.462,2.462,0,0,1,2.645-2.608c.648,0,1.3-.013,1.945,0a2.343,2.343,0,0,1,2.18,1.441,3.1,3.1,0,0,1,.236,1.352c.006,1.211.012,2.421,0,3.632,0,.368.105.521.492.506.648-.025,1.3-.006,1.945-.007,1.086,0,1.425-.335,1.426-1.414q0-3.113,0-6.226c0-1.332.026-1.361,1.347-1.367.393,0,.766-.041.942-.456s-.086-.676-.349-.939q-4.313-4.309-8.623-8.62c-.549-.549-.816-.546-1.375.012q-2.707,2.7-5.412,5.411-1.666,1.666-3.332,3.333a.7.7,0,0,0-.227.779.729.729,0,0,0,.711.472c.245.012.49,0,.735.007.636.01.85.222.853.866C541.041,276.5,541.037,277.636,541.037,278.774Z"/>
  </g>
</svg>
