<svg xmlns="http://www.w3.org/2000/svg" width="24.295" height="24.301" viewBox="0 0 24.295 24.301">
  <g id="Grupo_23266" data-name="Grupo 23266" transform="translate(1367.378 -425.607)">
    <path id="Trazado_17452" data-name="Trazado 17452" d="M-1355.157,425.607a12.14,12.14,0,0,0-12.221,12.046,12.142,12.142,0,0,0,12.012,12.255,12.138,12.138,0,0,0,12.282-12.108A12.14,12.14,0,0,0-1355.157,425.607Zm-.156,22.782a10.662,10.662,0,0,1-10.546-10.715,10.663,10.663,0,0,1,10.712-10.549A10.664,10.664,0,0,1-1344.6,437.84,10.664,10.664,0,0,1-1355.313,448.389Z" fill="#343434"/>
    <path id="Trazado_17453" data-name="Trazado 17453" d="M-1320.4,468.026c0,1.358-.009,2.717,0,4.075.006.658-.207,1.194-.915,1.221-.788.03-1.022-.526-1.02-1.239q.012-4.075,0-8.15c0-.657.2-1.193.916-1.22.789-.03,1.025.524,1.019,1.237C-1320.411,465.31-1320.4,466.668-1320.4,468.026Z" transform="translate(-33.863 -27.897)" fill="#343434"/>
    <path id="Trazado_17454" data-name="Trazado 17454" d="M-1320.705,446.674c-.152.737-.534,1.184-1.276,1.115a1.042,1.042,0,0,1-1.018-1.17,1.064,1.064,0,0,1,1.242-1.073C-1321.07,445.6-1320.8,446.094-1320.705,446.674Z" transform="translate(-33.361 -14.987)" fill="#343434"/>
  </g>
</svg>
