<svg xmlns="http://www.w3.org/2000/svg" width="23.963" height="23.245" viewBox="0 0 23.963 23.245">
  <g id="Grupo_1495" data-name="Grupo 1495" transform="translate(-18.446 -121.755)">
    <g id="Grupo_1495-2" data-name="Grupo 1495" transform="translate(27 124.983)">
      <path id="Sustracción_4" data-name="Sustracción 4" d="M-5823.813,663.483a.735.735,0,0,1-.337-.086.652.652,0,0,1-.382-.608.255.255,0,0,0-.05-.186.266.266,0,0,0-.2-.051h-.01c-.413,0-.844,0-1.355,0h-1.355a2.6,2.6,0,0,1-2.612-2.6c-.006-.8-.005-1.562,0-2.251a.266.266,0,0,0-.05-.2.256.256,0,0,0-.192-.053c-1.04,0-2.122,0-3.077,0h-1.071V656h.024l.437.005h.056c.19,0,.4,0,.6,0,.159,0,.3,0,.418,0h.943l.7,0c.335,0,.639,0,.955-.007h.062a3.033,3.033,0,0,1,2.167.88c1.458,1.373,2.932,2.707,4.053,3.716a2.794,2.794,0,0,1,1,2.007.774.774,0,0,1-.321.75A.714.714,0,0,1-5823.813,663.483Zm-2.07-2.38h.041l.022,0a.09.09,0,0,0,.085-.05l-.98-.9-.155-.144q-.879-.8-1.77-1.622c0,.007,0,.013,0,.019l0,.015,0,.009a.1.1,0,0,0-.006.029c0,.451,0,.963,0,1.453a1.106,1.106,0,0,0,1.163,1.182l.633,0h.98Z" transform="translate(5838 -656)" stroke="rgba(0,0,0,0)" stroke-width="1"/>
      <path id="Trazado_636" data-name="Trazado 636" d="M292.247,392.237q0,2.231,0,4.461a1.158,1.158,0,0,0,1.287,1.3q2.45,0,4.9,0a.719.719,0,0,1,.226,1.413,1.417,1.417,0,0,1-.316.035c-1.627,0-3.253.008-4.88,0a2.6,2.6,0,0,1-2.567-1.909,3.032,3.032,0,0,1-.1-.807q0-4.481,0-8.963a1.683,1.683,0,0,1,.025-.3.716.716,0,0,1,1.422.108c.007.644,0,1.288,0,1.932Q292.247,390.872,292.247,392.237Z" transform="translate(-290.796 -379.43)"/>
      <path id="Trazado_17350" data-name="Trazado 17350" d="M297.75,392.237q0,2.231,0,4.461a1.158,1.158,0,0,1-1.287,1.3q-2.45,0-4.9,0a.719.719,0,0,0-.226,1.413,1.417,1.417,0,0,0,.316.035c1.627,0,3.253.008,4.88,0a2.6,2.6,0,0,0,2.567-1.909,3.031,3.031,0,0,0,.1-.807c0-2.988,0-4.88,0-7.867a1.683,1.683,0,0,0-.025-.3.716.716,0,0,0-1.422.108c-.007.644,0,.193,0,.837Q297.75,390.872,297.75,392.237Z" transform="translate(-284.293 -379.43)"/>
      <g id="Grupo_22913" data-name="Grupo 22913" transform="translate(-1541.809 -516.641)">
        <path id="Trazado_17303" data-name="Trazado 17303" d="M1544.126,520.458l-.163-.116c-.166-.117-.338-.239-.492-.372a.379.379,0,0,1-.112-.232,9.669,9.669,0,0,1,0-1.007.341.341,0,0,1,.094-.212c.154-.131.323-.252.488-.368l.191-.137a.567.567,0,0,0,.224-.7,5.894,5.894,0,0,0-1.089-1.887.575.575,0,0,0-.445-.225.69.69,0,0,0-.277.064l-.417.182c-.253.11-.515.223-.771.341a.545.545,0,0,0-.321.726.53.53,0,0,0,.5.339.7.7,0,0,0,.264-.055c.1-.042.205-.088.3-.133.147-.066.3-.135.451-.189a.1.1,0,0,1,.03,0,.225.225,0,0,1,.107.025c.143.214.271.436.407.67l.1.164-.179.134c-.187.14-.364.272-.544.4a.667.667,0,0,0-.281.641c.022.489.022.983,0,1.469a.671.671,0,0,0,.276.643c.18.126.358.258.546.4l.181.135-.109.185c-.129.219-.251.427-.371.641-.039.069-.063.069-.073.069a.247.247,0,0,1-.1-.031c-.132-.065-.268-.124-.4-.181-.1-.044-.206-.089-.306-.136a.62.62,0,0,0-.267-.064.8.8,0,0,0-.427.152,13.007,13.007,0,0,1-1.245.72.689.689,0,0,0-.442.576c-.009.1-.02.2-.031.3-.017.153-.035.312-.045.469-.007.106-.035.116-.108.116h-.209c-.212,0-.431,0-.647,0h0c-.087,0-.121-.013-.128-.15-.01-.182-.031-.365-.052-.542-.009-.077-.018-.154-.026-.231a.663.663,0,0,0-.413-.534c-.47-.244-.886-.484-1.272-.732a.77.77,0,0,0-.423-.148.63.63,0,0,0-.272.065c-.254.12-.484.226-.724.313a.1.1,0,0,1-.03,0,.214.214,0,0,1-.089-.018c-.146-.222-.278-.449-.418-.689l-.093-.158.174-.13c.176-.132.342-.257.513-.37a.723.723,0,0,0,.31-.74,9.727,9.727,0,0,1,0-1.353.707.707,0,0,0-.3-.716c-.17-.114-.338-.24-.516-.372l-.183-.136.1-.164c.138-.236.268-.459.41-.676a.2.2,0,0,1,.1-.027h.015a7.663,7.663,0,0,1,.723.311.648.648,0,0,0,.284.069.785.785,0,0,0,.436-.155,13.441,13.441,0,0,1,1.246-.718.677.677,0,0,0,.43-.554c.006-.066.012-.131.018-.2.017-.195.035-.4.071-.588a.226.226,0,0,1,.093-.109c.147-.011.3-.016.446-.016s.294.005.439.016a.221.221,0,0,1,.1.106c.028.152.043.312.058.466.011.115.022.233.038.35a.559.559,0,0,0,.547.531l.046,0a.525.525,0,0,0,.368-.182.627.627,0,0,0,.131-.465c-.035-.4-.08-.809-.124-1.2l-.01-.09a.546.546,0,0,0-.515-.54c-.12-.009-.242-.019-.36-.029-.3-.026-.615-.053-.923-.053-.115,0-.221,0-.324.011-.478.034-.735.059-.892.219s-.18.439-.212.9c-.028.4-.142.569-.454.676a1.643,1.643,0,0,0-.375.209.878.878,0,0,1-.4.192h-.014a1.192,1.192,0,0,1-.513-.194c-.092-.05-.187-.1-.283-.143a.878.878,0,0,0-.342-.086.555.555,0,0,0-.463.3,11.677,11.677,0,0,0-.861,1.39c-.19.383-.274.585-.221.78s.23.329.565.574l.038.03a.583.583,0,0,0,.114.077.532.532,0,0,1,.32.657,1.856,1.856,0,0,0,0,.428.947.947,0,0,1-.038.474,1.25,1.25,0,0,1-.469.392c-.083.05-.168.1-.246.158a.564.564,0,0,0-.221.76q.073.148.144.3a9.767,9.767,0,0,0,.588,1.1c.284.437.446.665.737.665a2.073,2.073,0,0,0,.732-.239l.018-.008a.382.382,0,0,0,.074-.037.614.614,0,0,1,.342-.123.638.638,0,0,1,.406.182,1.768,1.768,0,0,0,.369.221.921.921,0,0,1,.382.266,1.208,1.208,0,0,1,.1.582c0,.1.005.212.017.315a.587.587,0,0,0,.522.555,5.932,5.932,0,0,0,1.072.1,6,6,0,0,0,1.052-.094.6.6,0,0,0,.542-.6l.006-.067c.022-.246.044-.5.087-.745a.3.3,0,0,1,.123-.165c.292-.185.594-.359.9-.519a.318.318,0,0,1,.139-.032.2.2,0,0,1,.065.009c.229.083.456.188.677.288l.1.046a.714.714,0,0,0,.3.071.61.61,0,0,0,.472-.248,6.055,6.055,0,0,0,1.059-1.839A.579.579,0,0,0,1544.126,520.458Z" transform="translate(0)"/>
        <path id="Trazado_17304" data-name="Trazado 17304" d="M1611.7,595.02a1.323,1.323,0,1,0,1.327,1.335A1.325,1.325,0,0,0,1611.7,595.02Zm-.009,1.762a.439.439,0,1,1,.45-.428A.444.444,0,0,1,1611.7,596.782Z" transform="translate(-72.875 -77.106)"/>
      </g>
    </g>
  </g>
</svg>
