<svg xmlns="http://www.w3.org/2000/svg" width="11.293" height="14.815" viewBox="0 0 11.293 14.815">
  <g id="Grupo_23168" data-name="Grupo 23168" transform="translate(-649 -227)">
    <g id="Grupo_23157" data-name="Grupo 23157" transform="translate(649 227)">
      <path id="Trazado_17435" data-name="Trazado 17435" d="M-375.755,602.267a5.623,5.623,0,0,1,5.583,4.876,7.329,7.329,0,0,1-.683,3.973,15.51,15.51,0,0,1-4.435,5.753.623.623,0,0,1-.939,0,15.258,15.258,0,0,1-4.665-6.3,7.528,7.528,0,0,1-.514-2.706,5.663,5.663,0,0,1,4.869-5.552A6.628,6.628,0,0,1-375.755,602.267Zm-4.44,5.64a6.723,6.723,0,0,0,.516,2.486,14.164,14.164,0,0,0,3.744,5.153c.137.125.237.109.364-.014.343-.332.7-.654,1.019-1.007a13.748,13.748,0,0,0,2.632-3.986,6.263,6.263,0,0,0,.546-3.256,4.453,4.453,0,0,0-5.035-3.777A4.438,4.438,0,0,0-380.2,607.906Z" transform="translate(381.409 -602.266)"/>
      <path id="Trazado_17436" data-name="Trazado 17436" d="M-323.284,656.717a3.173,3.173,0,0,1-3.159,3.169,3.172,3.172,0,0,1-3.181-3.2,3.2,3.2,0,0,1,3.173-3.161A3.19,3.19,0,0,1-323.284,656.717Zm-1.214,0a1.952,1.952,0,0,0-1.946-1.969,1.95,1.95,0,0,0-1.963,1.952,1.962,1.962,0,0,0,1.958,1.984A1.962,1.962,0,0,0-324.5,656.713Z" transform="translate(332.099 -651.079)"/>
    </g>
  </g>
</svg>
