<svg xmlns="http://www.w3.org/2000/svg" width="29.291" height="28.506" viewBox="0 0 29.291 28.506">
  <g id="Grupo_23022" data-name="Grupo 23022" transform="translate(0.513 0.5)">
    <g id="Grupo_23021" data-name="Grupo 23021" transform="translate(-1564.956 118.63)">
      <path id="Trazado_17382" data-name="Trazado 17382" d="M1576.527-101.741c.678,0,1.355,0,2.033,0,.492,0,.431.056.428-.422a1.692,1.692,0,0,1,.229-.921,1.622,1.622,0,0,1,1.345-.779,7.875,7.875,0,0,1,.821,0c.149,0,.208-.056.207-.206q-.005-1.314,0-2.629c0-.166-.074-.212-.225-.21a5.348,5.348,0,0,1-1.084-.062,1.566,1.566,0,0,1-1.291-1.531q-.006-1.366,0-2.731a1.561,1.561,0,0,1,1.554-1.555q1.622-.007,3.245,0a1.559,1.559,0,0,1,1.548,1.54q.009,1.386,0,2.772a1.557,1.557,0,0,1-1.176,1.478,4.04,4.04,0,0,1-1.163.088c-.194-.007-.265.059-.263.258.008.842,0,1.684,0,2.526,0,.249.012.253.273.262a5.039,5.039,0,0,1,1.142.068,1.572,1.572,0,0,1,1.183,1.476c0,.144,0,.288,0,.431,0,.1.045.152.148.149.062,0,.123,0,.185,0h4.231c.5,0,.719.215.72.725,0,1.232,0,2.464,0,3.7,0,.308,0,.3.307.31a3.086,3.086,0,0,1,1.354.143,1.5,1.5,0,0,1,.933,1.362c.023.9-.013,1.794.012,2.69a1.625,1.625,0,0,1-1.626,1.677c-1.047.018-2.095.015-3.142,0a1.626,1.626,0,0,1-1.594-1.643c.029-.882,0-1.766.008-2.649a1.577,1.577,0,0,1,1.595-1.582c.267,0,.534-.005.8,0,.152,0,.2-.06.2-.208q-.005-1.6,0-3.2c0-.137-.048-.2-.191-.2q-1.879,0-3.758,0c-.146,0-.195.063-.186.2.006.1,0,.205,0,.308a1.581,1.581,0,0,1-1.587,1.591q-1.592,0-3.183,0a1.58,1.58,0,0,1-1.58-1.576c0-.52,0-.52-.52-.52-1.116,0-2.232,0-3.348,0-.206,0-.272.06-.271.269q.014,1.54,0,3.08c0,.212.072.264.274.267a3.7,3.7,0,0,1,1.3.1,1.577,1.577,0,0,1,1.026,1.426c.005.9,0,1.807,0,2.711a1.587,1.587,0,0,1-1.6,1.635c-1.04.017-2.081.015-3.121,0A1.627,1.627,0,0,1,1571.1-92.8c.023-.876,0-1.752.006-2.629a1.589,1.589,0,0,1,1.581-1.581c.246,0,.493,0,.739,0,.271,0,.279-.008.28-.274q0-1.859,0-3.717a.923.923,0,0,1,.046-.343.536.536,0,0,1,.558-.394C1575.048-101.742,1575.787-101.74,1576.527-101.741Zm5.639-9.928c-.506,0-1.013,0-1.519,0a.466.466,0,0,0-.531.528q0,1.263,0,2.525c0,.357.163.542.522.546q1.529.016,3.059,0c.358,0,.52-.189.521-.547q0-1.263,0-2.525a.466.466,0,0,0-.532-.527C1583.178-111.671,1582.672-111.668,1582.166-111.668Zm-7.893,15.81c-.506,0-1.012,0-1.518,0-.366,0-.524.16-.525.527q0,1.251,0,2.5a.514.514,0,0,0,.534.567q1.518.015,3.036,0a.5.5,0,0,0,.532-.567q0-1.241,0-2.482c0-.4-.142-.546-.541-.548C1575.284-95.86,1574.778-95.858,1574.272-95.858Zm15.778,0c-.513,0-1.026,0-1.538,0-.36,0-.509.152-.51.516q0,1.262,0,2.523a.5.5,0,0,0,.541.558q1.508.014,3.015,0a.514.514,0,0,0,.545-.557q0-1.262,0-2.523a.45.45,0,0,0-.514-.517C1591.076-95.861,1590.563-95.858,1590.05-95.858Zm-7.867-6.856c-.513,0-1.027,0-1.54,0a.464.464,0,0,0-.528.531q0,.986,0,1.971a.493.493,0,0,0,.565.566q1.489.005,2.978,0c.385,0,.558-.182.559-.573q0-.975,0-1.951c0-.383-.165-.543-.555-.545C1583.169-102.717,1582.676-102.715,1582.183-102.715Z" transform="translate(0)" stroke="rgba(0,0,0,0)" stroke-width="1"/>
    </g>
    <g id="Grupo_22906" data-name="Grupo 22906" transform="translate(-252.428 -8.693)">
      <g id="Grupo_22904" data-name="Grupo 22904">
        <path id="Sustracción_2" data-name="Sustracción 2" d="M-5570.42,739.347a6.035,6.035,0,0,1-1.072-.1.592.592,0,0,1-.522-.556c-.011-.1-.014-.205-.017-.306v-.009h0a1.193,1.193,0,0,0-.1-.582.942.942,0,0,0-.382-.267l-.016-.008a1.726,1.726,0,0,1-.354-.212.637.637,0,0,0-.4-.182.614.614,0,0,0-.343.123.312.312,0,0,1-.067.034l-.007,0-.011.005-.007,0a2.082,2.082,0,0,1-.733.239c-.29,0-.451-.228-.736-.665a9.732,9.732,0,0,1-.588-1.1l-.089-.184-.055-.114a.561.561,0,0,1,.22-.76c.08-.057.169-.113.246-.16a1.256,1.256,0,0,0,.469-.39.936.936,0,0,0,.038-.471v-.006a1.939,1.939,0,0,1,0-.425.53.53,0,0,0-.32-.656.569.569,0,0,1-.1-.069l-.012-.009-.014-.011-.005,0-.019-.014c-.335-.245-.512-.382-.564-.574s.03-.4.221-.779a11.648,11.648,0,0,1,.844-1.367l.017-.024a.557.557,0,0,1,.463-.3.883.883,0,0,1,.341.087c.1.041.2.1.283.143a1.2,1.2,0,0,0,.514.195h.014a.876.876,0,0,0,.392-.185l.01-.007a1.7,1.7,0,0,1,.374-.21c.313-.107.427-.277.454-.676.032-.455.052-.73.212-.894s.413-.185.892-.22c.1-.007.2-.01.323-.01.3,0,.608.025.9.05l.021,0c.11.01.231.02.361.029a.544.544,0,0,1,.514.54l.011.09.011.1v.015c.04.358.081.728.112,1.092a.633.633,0,0,1-.132.465.519.519,0,0,1-.368.182l-.046,0a.56.56,0,0,1-.547-.533c-.016-.116-.027-.235-.037-.34v-.015c-.013-.136-.028-.305-.057-.461a.225.225,0,0,0-.1-.1c-.145-.011-.292-.017-.439-.017s-.3.006-.446.017a.229.229,0,0,0-.093.109c-.036.2-.055.414-.07.588,0,.033-.007.066-.01.1l0,.049,0,.049a.68.68,0,0,1-.43.554,13.173,13.173,0,0,0-1.246.718.79.79,0,0,1-.437.155.661.661,0,0,1-.284-.07,7.815,7.815,0,0,0-.722-.312h-.016a.209.209,0,0,0-.1.027c-.134.2-.256.415-.386.637l0,.006-.02.033-.033.056-.064.109.025.019.158.117c.185.138.352.261.517.372a.707.707,0,0,1,.3.716,9.631,9.631,0,0,0,0,1.353.72.72,0,0,1-.311.739c-.147.1-.292.206-.444.32l-.014.011-.054.04-.1.073-.014.01-.064.048.045.077,0,.008.042.073.007.013c.138.235.268.457.411.676a.227.227,0,0,0,.089.018.138.138,0,0,0,.03,0c.238-.086.469-.193.725-.314a.628.628,0,0,1,.271-.064.77.77,0,0,1,.423.147c.388.249.8.488,1.272.732a.663.663,0,0,1,.413.535c.008.077.017.154.027.231.022.184.042.364.052.543.007.136.042.15.128.15.221,0,.44,0,.652,0h.208c.072,0,.1-.01.108-.116.009-.139.024-.278.039-.413l.006-.056c.011-.1.022-.2.032-.3a.692.692,0,0,1,.441-.577,12.784,12.784,0,0,0,1.246-.721.8.8,0,0,1,.427-.151.62.62,0,0,1,.269.064c.112.052.211.1.305.134l.044.019c.118.051.239.1.356.163a.248.248,0,0,0,.1.031c.011,0,.035,0,.074-.069.125-.224.261-.455.371-.641l.03-.052c.026-.044.053-.089.079-.134l-.085-.063-.1-.071c-.206-.153-.376-.279-.544-.4a.669.669,0,0,1-.276-.644c.021-.492.021-.987,0-1.469a.67.67,0,0,1,.282-.641c.189-.132.373-.27.544-.4l.042-.032.135-.1-.03-.051-.064-.111c-.131-.228-.261-.45-.407-.669a.221.221,0,0,0-.107-.027.077.077,0,0,0-.028,0c-.151.053-.3.119-.452.189l-.021.009-.007,0c-.09.041-.184.082-.278.121a.692.692,0,0,1-.263.055.532.532,0,0,1-.5-.339.547.547,0,0,1,.322-.726c.218-.1.443-.2.661-.293l.016-.007.093-.041c.14-.06.278-.12.417-.182a.694.694,0,0,1,.277-.063.579.579,0,0,1,.445.224,5.929,5.929,0,0,1,1.089,1.886.569.569,0,0,1-.225.7l-.148.107-.042.03-.049.035c-.147.106-.3.215-.439.333a.339.339,0,0,0-.094.213,9.562,9.562,0,0,0,0,1.006.379.379,0,0,0,.112.232c.146.126.308.242.465.353l.005,0,.021.015.038.027c.043.03.085.059.126.09a.579.579,0,0,1,.223.729,6.034,6.034,0,0,1-1.058,1.839.612.612,0,0,1-.473.248.709.709,0,0,1-.295-.07l-.1-.046c-.239-.109-.455-.207-.677-.288a.207.207,0,0,0-.064-.01.319.319,0,0,0-.14.032c-.3.157-.6.332-.9.519a.3.3,0,0,0-.123.165c-.042.236-.064.487-.084.708l0,.036,0,.067a.6.6,0,0,1-.543.6A6.078,6.078,0,0,1-5570.42,739.347Zm0-4.524h0a1.312,1.312,0,0,1-.938-.391,1.314,1.314,0,0,1-.384-.944,1.324,1.324,0,0,1,1.321-1.311,1.317,1.317,0,0,1,.94.392,1.318,1.318,0,0,1,.386.943A1.325,1.325,0,0,1-5570.42,734.822Zm0-1.762a.442.442,0,0,0-.438.427.435.435,0,0,0,.122.313.433.433,0,0,0,.305.138h.012a.449.449,0,0,0,.44-.427.443.443,0,0,0-.43-.451Z" transform="translate(5828.428 -718.983)" stroke="rgba(0,0,0,0)" stroke-width="1"/>
      </g>
    </g>
  </g>
</svg>
