<svg xmlns="http://www.w3.org/2000/svg" width="72.499" height="65.512" viewBox="0 0 72.499 65.512">
  <g id="Grupo_23007" data-name="Grupo 23007" transform="translate(-318.991 -253)">
    <path id="Trazado_17291" data-name="Trazado 17291" d="M379.309,253c.536.333.487.717.138,1.172q-6.126,7.967-12.252,15.934c-.152.2-.457.277-.691.412a2.489,2.489,0,0,1-.379-.784c-.143-1.721-.238-3.446-.355-5.169-.026-.388-.077-.774-.129-1.275-.305.146-.531.25-.755.361-4.552,2.237-9.107,4.466-13.647,6.727a2.549,2.549,0,0,0-.992.923c-2.533,4.214-5.035,8.447-7.546,12.675-1.144,1.927-2.253,2.3-4.316,1.452q-8.664-3.568-17.327-7.139c-1.489-.614-2.228-1.708-2.039-2.981a2.705,2.705,0,0,1,3.906-2.091c2.667,1.075,5.319,2.185,7.977,3.28l7.959,3.278c.165-.257.324-.489.467-.729,2.232-3.754,4.472-7.5,6.683-11.27a4.611,4.611,0,0,1,2.028-1.883q7.226-3.523,14.43-7.089c.234-.115.463-.239.793-.409-.7-.622-1.356-1.208-2.015-1.791-.961-.85-1.916-1.706-2.888-2.543-.39-.336-.471-.665-.111-1.06Z" fill="#ec6f35"/>
    <path id="Trazado_17292" data-name="Trazado 17292" d="M618.973,307.413h-2.838v30.34q0,8.43,0,16.861h4.788q0-23.6,0-47.2h-1.95m0-4.025,3.684,0c1.748,0,2.292.547,2.292,2.308q0,25.332,0,50.663c0,1.752-.541,2.279-2.313,2.28q-4.165,0-8.327,0c-1.664,0-2.2-.54-2.2-2.223q0-12.725,0-25.449,0-12.607,0-25.214c0-1.872.495-2.364,2.378-2.365Z" transform="translate(-233.46 -40.132)" fill="#ec6f35"/>
    <path id="Trazado_17293" data-name="Trazado 17293" d="M528.408,411.375h3.106V390.15q0-5.736,0-11.472-2.406,0-4.811,0,0,16.348,0,32.7h1.706m0,4.026-3.584,0c-1.556,0-2.146-.587-2.147-2.128q0-18.266,0-36.532c0-1.512.568-2.078,2.1-2.082q4.321-.012,8.643,0c1.537,0,2.12.6,2.121,2.152q.006,9.113,0,18.226,0,9,0,17.991c0,1.854-.523,2.372-2.387,2.373Z" transform="translate(-162.228 -96.891)" fill="#ec6f35"/>
    <path id="Trazado_17294" data-name="Trazado 17294" d="M350.233,462.7h2.547q0-3.264,0-6.529v-6.526q0-3.263,0-6.526H348c0,6.551,0,13.122,0,19.581h2.237m0,4.026-4.1,0c-1.6,0-2.162-.567-2.162-2.185q-.006-11.623,0-23.246c0-1.645.569-2.2,2.232-2.2q4.2,0,8.4,0c1.648,0,2.2.557,2.2,2.229q0,5.811,0,11.622t0,11.623c0,1.612-.554,2.153-2.187,2.155Z" transform="translate(-19.894 -148.218)" fill="#ec6f35"/>
    <path id="Trazado_17295" data-name="Trazado 17295" d="M439.549,491l2.521,0q0-1.893,0-3.786v-4.746c0-1.253,0-2.535,0-3.816-1.561,0-3.153,0-4.813,0-.006,4.1-.006,8.24,0,12.348l2.291,0m0,4.026q-2.147,0-4.295-.007a1.761,1.761,0,0,1-2.019-2.024q-.014-8.164,0-16.329a1.773,1.773,0,0,1,2.015-2.033q4.436-.022,8.872,0a1.74,1.74,0,0,1,1.969,1.99c.009,2.748,0,5.495,0,8.243q0,4.043,0,8.086c0,1.446-.61,2.064-2.045,2.068Q441.8,495.026,439.549,495.026Z" transform="translate(-90.986 -176.514)" fill="#ec6f35"/>
  </g>
</svg>
