<svg xmlns="http://www.w3.org/2000/svg" width="13.444" height="13.449" viewBox="0 0 13.444 13.449">
  <g id="Grupo_23167" data-name="Grupo 23167" transform="translate(502.892 -503.559)">
    <path id="Trazado_17418" data-name="Trazado 17418" d="M-489.448,510.282a6.73,6.73,0,0,1-6.716,6.726,6.747,6.747,0,0,1-6.727-6.737,6.731,6.731,0,0,1,6.737-6.712A6.722,6.722,0,0,1-489.448,510.282Zm-6.726,5.274a5.26,5.26,0,0,0,5.274-5.229,5.234,5.234,0,0,0-5.277-5.311,5.225,5.225,0,0,0-5.26,5.269A5.253,5.253,0,0,0-496.174,515.556Z" transform="translate(0 0)"/>
    <path id="Trazado_17419" data-name="Trazado 17419" d="M-409.5,594.454q0,.809,0,1.618a.74.74,0,0,1-.772.774q-1.641,0-3.282,0a.73.73,0,0,1-.747-.571.727.727,0,0,1,.55-.865,1.494,1.494,0,0,1,.327-.034q1.124,0,2.248,0c.2,0,.2-.008.2-.2,0-.764,0-1.529,0-2.293a.833.833,0,0,1,.2-.61.71.71,0,0,1,.777-.2.73.73,0,0,1,.488.689c0,.564,0,1.129,0,1.693Z" transform="translate(-85.922 -85.815)"/>
  </g>
</svg>
