<svg xmlns="http://www.w3.org/2000/svg" width="21.612" height="19.529" viewBox="0 0 21.612 19.529">
  <g id="Grupo_22652" data-name="Grupo 22652" transform="translate(-318.991 -253)">
    <path id="Trazado_17291" data-name="Trazado 17291" d="M336.972,253c.16.1.145.214.041.349q-1.826,2.375-3.652,4.75c-.045.059-.136.083-.206.123a.741.741,0,0,1-.113-.234c-.043-.513-.071-1.027-.106-1.541-.008-.116-.023-.231-.038-.38l-.225.107c-1.357.667-2.715,1.331-4.068,2.005a.76.76,0,0,0-.3.275c-.755,1.256-1.5,2.518-2.249,3.778a.868.868,0,0,1-1.286.433q-2.583-1.064-5.165-2.128a.832.832,0,0,1-.608-.889.806.806,0,0,1,1.164-.623c.795.32,1.585.651,2.378.978l2.373.977c.049-.077.1-.146.139-.217.665-1.119,1.333-2.237,1.992-3.36a1.375,1.375,0,0,1,.6-.561q2.154-1.05,4.3-2.113c.07-.034.138-.071.236-.122l-.6-.534c-.286-.253-.571-.509-.861-.758-.116-.1-.14-.2-.033-.316Z" transform="translate(0 0)"/>
    <path id="Trazado_17292" data-name="Trazado 17292" d="M614.155,304.588h-.846v9.044q0,2.513,0,5.026h1.427q0-7.035,0-14.07h-.581m0-1.2h1.1c.521,0,.683.163.683.688q0,7.551,0,15.1c0,.522-.161.679-.689.68h-2.482c-.5,0-.655-.161-.655-.663q0-3.793,0-7.586,0-3.758,0-7.516c0-.558.147-.7.709-.7Z" transform="translate(-275.334 -47.331)"/>
    <path id="Trazado_17293" data-name="Trazado 17293" d="M524.384,385.6h.926v-6.327q0-1.71,0-3.42h-1.434q0,4.873,0,9.747h.509m0,1.2h-1.068c-.464,0-.64-.175-.64-.634q0-5.445,0-10.89c0-.451.169-.619.625-.621q1.288,0,2.576,0c.458,0,.632.178.632.642q0,2.717,0,5.433,0,2.682,0,5.363c0,.553-.156.707-.711.707Z" transform="translate(-191.326 -114.27)"/>
    <path id="Trazado_17294" data-name="Trazado 17294" d="M345.836,446.131h.759q0-.973,0-1.946v-1.945q0-.973,0-1.945h-1.426c0,1.953,0,3.911,0,5.837h.667m0,1.2h-1.222c-.476,0-.644-.169-.645-.651q0-3.465,0-6.929c0-.49.17-.655.665-.655h2.505c.491,0,.654.166.655.664q0,1.732,0,3.465t0,3.465c0,.481-.165.642-.652.642Z" transform="translate(-23.463 -174.803)"/>
    <path id="Trazado_17295" data-name="Trazado 17295" d="M435.112,479.5h.752q0-.564,0-1.129V476.96c0-.374,0-.756,0-1.138-.465,0-.94,0-1.435,0,0,1.223,0,2.456,0,3.681h.683m0,1.2-1.28,0a.525.525,0,0,1-.6-.6q0-2.434,0-4.868a.528.528,0,0,1,.6-.606q1.322-.007,2.645,0a.519.519,0,0,1,.587.593c0,.819,0,1.638,0,2.457q0,1.205,0,2.41c0,.431-.182.615-.61.616Z" transform="translate(-107.306 -208.175)"/>
  </g>
</svg>
