<svg id="Grupo_23030" data-name="Grupo 23030" xmlns="http://www.w3.org/2000/svg" width="19.962" height="25.375" viewBox="0 0 19.962 25.375">
  <path id="Trazado_17398" data-name="Trazado 17398" d="M208.86,2098.528c0,.161,0,.322,0,.482,0,.1.039.134.135.133.3,0,.6,0,.907,0a.57.57,0,1,1,0,1.139c-.3,0-.6,0-.893,0-.109,0-.152.038-.15.149,0,.3,0,.6,0,.907a.569.569,0,0,1-1.138,0c0-.3,0-.6,0-.893,0-.121-.037-.169-.162-.166-.293.006-.586,0-.879,0a.558.558,0,0,1-.583-.575.547.547,0,0,1,.576-.564c.3,0,.6,0,.893,0,.118,0,.158-.041.156-.157-.005-.3,0-.6,0-.893a.538.538,0,0,1,.565-.574.547.547,0,0,1,.573.569c0,.146,0,.293,0,.439Z" transform="translate(-198.323 -2085.305)"/>
  <path id="Trazado_17399" data-name="Trazado 17399" d="M133.509,2030.308a5.18,5.18,0,1,1,5.178,5.188A5.186,5.186,0,0,1,133.509,2030.308Zm5.186-3.822a3.827,3.827,0,1,0,3.816,3.821A3.836,3.836,0,0,0,138.695,2026.486Z" transform="translate(-128.725 -2015.893)"/>
  <path id="Trazado_17400" data-name="Trazado 17400" d="M17.383,1815.49q0-4.264,0-8.527a2.6,2.6,0,0,1,2.175-2.591,2.315,2.315,0,0,1,.39-.024c.673,0,1.346-.007,2.018,0,.182,0,.244-.058.235-.238-.012-.233-.005-.467,0-.7a.523.523,0,0,1,.455-.549,2.31,2.31,0,0,1,.512-.037h1.277a.211.211,0,0,0,.232-.122,2.682,2.682,0,0,1,2.606-1.663,2.948,2.948,0,0,1,1.889.577,2.555,2.555,0,0,1,.781,1.016.286.286,0,0,0,.314.2c.474-.007.947,0,1.421,0a1.5,1.5,0,0,1,.407.052.523.523,0,0,1,.419.538c0,.24.008.481,0,.721-.007.164.06.214.218.212.673-.006,1.346,0,2.018,0a2.575,2.575,0,0,1,2.581,2.578c.006,2.273,0,4.545,0,6.818,0,3.385-.029,6.77.013,10.154a2.493,2.493,0,0,1-2.522,2.519c-4.984-.012-9.969,0-14.954-.008a2.447,2.447,0,0,1-2.214-1.264,2.1,2.1,0,0,1-.271-1.106q0-1.535,0-3.069Q17.383,1818.23,17.383,1815.49Zm1.284-.031q0,4.273,0,8.547a1,1,0,0,0,.385.845,1.611,1.611,0,0,0,1.027.3H34.638c.069,0,.138,0,.206,0a1.157,1.157,0,0,0,1.2-1.286q0-2.306,0-4.613,0-6.148,0-12.3a1.279,1.279,0,0,0-1.31-1.316c-.666,0-1.332,0-2,0-.17,0-.23.057-.226.227.009.4.008.8,0,1.194a.638.638,0,0,1-.568.652,2.215,2.215,0,0,1-.348.027q-4.253,0-8.506,0a1.985,1.985,0,0,1-.267-.014.644.644,0,0,1-.622-.707c0-.377-.009-.755,0-1.133.006-.188-.058-.252-.247-.249-.631.009-1.265.033-1.894,0a1.367,1.367,0,0,0-1.4,1.406C18.683,1809.843,18.667,1812.651,18.668,1815.459Zm8.684-9.006c1.208,0,2.416,0,3.623,0,.18,0,.259-.046.255-.243-.01-.624-.008-1.249,0-1.873,0-.17-.058-.23-.228-.227-.432.008-.865,0-1.3,0a.71.71,0,0,1-.8-.63,1.643,1.643,0,0,0-1.956-1.212,1.608,1.608,0,0,0-1.216,1.219.76.76,0,0,1-.814.628c-.4-.023-.8,0-1.194-.008-.178,0-.242.056-.239.237.008.6,0,1.208,0,1.812,0,.291,0,.292.3.292Z" transform="translate(-17.383 -1801.042)"/>
</svg>
