<svg xmlns="http://www.w3.org/2000/svg" width="22.994" height="22.976" viewBox="0 0 22.994 22.976">
  <g id="Grupo_23395" data-name="Grupo 23395" transform="translate(525.943 -493.758)">
    <path id="Trazado_17425" data-name="Trazado 17425" d="M-525.941,505.25c0-2.3-.006-4.594,0-6.891a2.493,2.493,0,0,1,1.292-2.282,2.356,2.356,0,0,1,1.156-.326q.665-.013,1.331,0c.175,0,.237-.061.226-.232a1.661,1.661,0,0,1,.238-1.073,1.522,1.522,0,0,1,1.695-.628,1.494,1.494,0,0,1,1.09,1.438c.005.492.005.492.5.492h6.026c.446,0,.4.034.405-.4a1.54,1.54,0,0,1,1.216-1.56,1.537,1.537,0,0,1,1.84,1.5c.023.461.023.455.489.463a7.968,7.968,0,0,1,1.49.055,2.517,2.517,0,0,1,2,2.465c.006,2.484,0,4.968,0,7.451,0,.358,0,.716,0,1.075a.389.389,0,0,0,.147.321,5.364,5.364,0,0,1,1.846,3.973,5.478,5.478,0,0,1-4.636,5.572,5.377,5.377,0,0,1-4.989-1.78.468.468,0,0,0-.4-.136q-5.174,0-10.348,0a2.568,2.568,0,0,1-1.576-.491,2.523,2.523,0,0,1-1.044-2.139Q-525.946,508.684-525.941,505.25Zm10.507-4.471h-9.133c-.322,0-.322,0-.322.317q0,3.69,0,7.381c0,1.207,0,2.414,0,3.62a1.486,1.486,0,0,0,1.431,1.589c3.286.008,6.571,0,9.857.007.178,0,.192-.045.123-.2a5.436,5.436,0,0,1-.425-3.121,5.516,5.516,0,0,1,7.665-4.187c.239.107.24.107.24-.165q0-2.453,0-4.905c0-.336,0-.336-.328-.336Zm6.982,5.982a4.452,4.452,0,0,0-4.464,4.458,4.414,4.414,0,0,0,4.448,4.464A4.413,4.413,0,0,0-504,511.235,4.45,4.45,0,0,0-508.452,506.761Zm-6.993-7.034h4.367c1.6,0,3.207,0,4.811,0,.2,0,.28-.051.273-.263-.014-.4,0-.794-.005-1.191a1.459,1.459,0,0,0-1.467-1.472c-.327,0-.654,0-.981,0-.456,0-.456,0-.476.451a1.537,1.537,0,0,1-1.83,1.51,1.535,1.535,0,0,1-1.226-1.528c-.005-.478.057-.433-.442-.433q-3,0-6,0c-.569,0-.48-.062-.487.48a1.5,1.5,0,0,1-1.08,1.446,1.52,1.52,0,0,1-1.712-.634,1.689,1.689,0,0,1-.232-1.074c.009-.16-.05-.223-.214-.22-.444.008-.888-.006-1.331.006a1.455,1.455,0,0,0-1.372,1.215,9.833,9.833,0,0,0-.038,1.375c-.007.329,0,.33.336.33Zm5.471-3.437q0-.443,0-.886c0-.016,0-.031,0-.047-.02-.337-.212-.549-.489-.541s-.458.215-.459.56q0,.9,0,1.8c0,.347.17.553.455.564s.483-.208.492-.56C-509.967,496.881-509.973,496.585-509.973,496.29Zm-9.988,0c0-.318,0-.636,0-.955a.478.478,0,0,0-.465-.529.473.473,0,0,0-.453.516q-.006.955,0,1.909a.47.47,0,0,0,.464.505.474.474,0,0,0,.453-.516C-519.958,496.915-519.961,496.6-519.961,496.294Z" fill="#fff"/>
    <path id="Trazado_17426" data-name="Trazado 17426" d="M-373.131,750.732c0,.132,0,.265,0,.4a1.1,1.1,0,0,1-1.089,1.111c-.288.008-.576.01-.863,0a1.1,1.1,0,0,1-1.072-1.1c0-.257,0-.513,0-.77a1.081,1.081,0,0,1,.986-1.157,3.532,3.532,0,0,1,1.138.014,1.077,1.077,0,0,1,.9,1.09C-373.129,750.452-373.131,750.592-373.131,750.732Zm-1.052,0c0-.549.037-.5-.458-.5s-.466-.054-.463.469c0,.542-.049.479.469.48C-374.146,751.187-374.184,751.244-374.182,750.736Z" transform="translate(-142.788 -243.478)" fill="#fff"/>
    <path id="Trazado_17427" data-name="Trazado 17427" d="M-460.7,838.275h-.35a1.083,1.083,0,0,1-1.155-.989,3.541,3.541,0,0,1,.011-1.115,1.075,1.075,0,0,1,1.1-.92q.408,0,.817,0a1.1,1.1,0,0,1,1.109,1.091q.012.42,0,.84a1.105,1.105,0,0,1-1.107,1.093C-460.417,838.276-460.557,838.275-460.7,838.275Zm.006-1.052c.505,0,.47.045.467-.412,0-.571.076-.505-.51-.509-.439,0-.44,0-.439.446C-461.171,837.253-461.23,837.223-460.691,837.223Z" transform="translate(-60.726 -325.535)" fill="#fff"/>
    <path id="Trazado_17428" data-name="Trazado 17428" d="M-373.138,665.819c0,.117,0,.233,0,.35a1.082,1.082,0,0,1-.988,1.155,3.532,3.532,0,0,1-1.115-.011,1.083,1.083,0,0,1-.921-1.1q0-.408,0-.817a1.1,1.1,0,0,1,1.091-1.108q.42-.012.84,0a1.1,1.1,0,0,1,1.093,1.107C-373.136,665.539-373.138,665.679-373.138,665.819Zm-1.052-.006c0-.5.046-.469-.413-.466-.571,0-.5-.076-.508.511,0,.438,0,.44.447.438C-374.16,666.293-374.189,666.354-374.189,665.813Z" transform="translate(-142.781 -162.561)" fill="#fff"/>
    <path id="Trazado_17429" data-name="Trazado 17429" d="M-291.057,665.751a3.241,3.241,0,0,1,.033-.614,1.109,1.109,0,0,1,1.048-.875c.3-.012.591-.012.887,0a1.117,1.117,0,0,1,1.069.992,3.82,3.82,0,0,1,0,1.024,1.087,1.087,0,0,1-1.015,1.019,3.683,3.683,0,0,1-1.024,0,1.117,1.117,0,0,1-1-1.155C-291.059,666.021-291.057,665.9-291.057,665.751Zm1.055.033c0,.516-.048.479.451.479s.5,0,.5-.488.044-.462-.468-.461C-290.048,665.315-290,665.262-290,665.785Z" transform="translate(-223.91 -162.529)" fill="#fff"/>
    <path id="Trazado_17430" data-name="Trazado 17430" d="M-459.169,750.861a3.674,3.674,0,0,1,0,.582,1.1,1.1,0,0,1-1.105.948c-.249.006-.5,0-.747,0a1.122,1.122,0,0,1-1.167-1.017,3.925,3.925,0,0,1,0-1,1.1,1.1,0,0,1,1.038-1.022,4.612,4.612,0,0,1,.978,0,1.116,1.116,0,0,1,1.024,1.159c0,.117,0,.233,0,.35Zm-1.039,0c0-.524.044-.473-.479-.474-.471,0-.472,0-.471.47,0,.523-.051.48.473.479S-460.211,751.385-460.208,750.861Z" transform="translate(-60.741 -243.627)" fill="#fff"/>
    <path id="Trazado_17431" data-name="Trazado 17431" d="M-459.162,665.851c0,.132,0,.265,0,.4a1.119,1.119,0,0,1-.94,1.089,3.746,3.746,0,0,1-1.07.016,1.086,1.086,0,0,1-1.025-1.008,3.579,3.579,0,0,1,.014-1.115,1.116,1.116,0,0,1,1.087-.915c.257-.007.513,0,.77,0a1.126,1.126,0,0,1,1.164,1.165C-459.16,665.6-459.161,665.727-459.162,665.851Zm-1.055-.013c0-.522.046-.469-.482-.47-.512,0-.467-.042-.468.461,0,.488,0,.489.476.488C-460.17,666.316-460.219,666.366-460.216,665.838Z" transform="translate(-60.732 -162.583)" fill="#fff"/>
    <path id="Trazado_17432" data-name="Trazado 17432" d="M-203.164,665.85c0,.148.007.3,0,.443a1.12,1.12,0,0,1-.914,1.04,3.756,3.756,0,0,1-1.093.019,1.086,1.086,0,0,1-1.026-1.007,3.577,3.577,0,0,1,.014-1.115,1.115,1.115,0,0,1,1.087-.916c.257-.007.513,0,.77,0a1.126,1.126,0,0,1,1.165,1.164c0,.124,0,.249,0,.373Zm-1.5.467c.488,0,.452.039.45-.456,0-.554.056-.491-.5-.493-.445,0-.445,0-.445.438C-205.167,666.318-205.167,666.318-204.667,666.318Z" transform="translate(-304.771 -162.583)" fill="#fff"/>
    <path id="Trazado_17433" data-name="Trazado 17433" d="M-373.166,836.744c0,.14,0,.28,0,.42a1.084,1.084,0,0,1-1.1,1.092c-.287,0-.575.005-.863,0a1.081,1.081,0,0,1-1.061-1.057q-.01-.454,0-.909a1.08,1.08,0,0,1,1.062-1.056c.3-.006.591-.005.886,0a1.083,1.083,0,0,1,1.074,1.068C-373.164,836.448-373.166,836.6-373.166,836.744Zm-1.051.01c0-.513.049-.47-.457-.47s-.464-.047-.464.462-.044.458.468.458C-374.177,837.2-374.22,837.246-374.218,836.753Z" transform="translate(-142.753 -325.516)" fill="#fff"/>
    <path id="Trazado_17434" data-name="Trazado 17434" d="M-161.053,796.495c-.467,0-.934,0-1.4,0a.548.548,0,0,1-.622-.615q-.005-1.412,0-2.825a.539.539,0,0,1,.518-.6.541.541,0,0,1,.534.607c0,.7.008,1.4,0,2.1,0,.209.053.287.274.283.716-.012,1.432-.011,2.148,0a.522.522,0,0,1,.5.77.546.546,0,0,1-.527.281Z" transform="translate(-345.909 -284.74)" fill="#fff"/>
  </g>
</svg>
